<mxfile host="app.diagrams.net" modified="2023-03-05T12:22:25.553Z" agent="5.0 (Windows NT 10.0; Win64; x64) AppleWebKit/537.36 (KHTML, like Gecko) Chrome/110.0.0.0 Safari/537.36" etag="7PXGY-ZdumoaqlHRd1KG" version="21.0.2" type="github">
  <diagram name="Page-1" id="DgW6Wv5wmXis6IikO1kk">
    <mxGraphModel dx="1290" dy="573" grid="1" gridSize="10" guides="1" tooltips="1" connect="1" arrows="1" fold="1" page="1" pageScale="1" pageWidth="850" pageHeight="1100" math="0" shadow="0">
      <root>
        <mxCell id="0" />
        <mxCell id="1" parent="0" />
        <mxCell id="_nZEtKebiJ_Cd3WZfdzX-1" style="edgeStyle=orthogonalEdgeStyle;rounded=0;orthogonalLoop=1;jettySize=auto;html=1;exitX=0.5;exitY=1;exitDx=0;exitDy=0;exitPerimeter=0;entryX=0.5;entryY=0;entryDx=0;entryDy=0;" edge="1" parent="1" target="_nZEtKebiJ_Cd3WZfdzX-3">
          <mxGeometry relative="1" as="geometry">
            <mxPoint x="210" y="150" as="sourcePoint" />
          </mxGeometry>
        </mxCell>
        <mxCell id="_nZEtKebiJ_Cd3WZfdzX-2" style="edgeStyle=orthogonalEdgeStyle;rounded=0;orthogonalLoop=1;jettySize=auto;html=1;exitX=1;exitY=0.5;exitDx=0;exitDy=0;" edge="1" parent="1" source="_nZEtKebiJ_Cd3WZfdzX-3" target="_nZEtKebiJ_Cd3WZfdzX-5">
          <mxGeometry relative="1" as="geometry" />
        </mxCell>
        <mxCell id="_nZEtKebiJ_Cd3WZfdzX-10" value="" style="edgeStyle=orthogonalEdgeStyle;rounded=0;orthogonalLoop=1;jettySize=auto;html=1;" edge="1" parent="1" source="_nZEtKebiJ_Cd3WZfdzX-3" target="_nZEtKebiJ_Cd3WZfdzX-5">
          <mxGeometry relative="1" as="geometry" />
        </mxCell>
        <mxCell id="_nZEtKebiJ_Cd3WZfdzX-3" value="&lt;p class=&quot;MsoNormal&quot;&gt;var&lt;/p&gt;&lt;p class=&quot;MsoNormal&quot;&gt;&lt;span style=&quot;background-color: initial;&quot;&gt;nome: caractere&lt;/span&gt;&lt;/p&gt;&lt;p class=&quot;MsoNormal&quot;&gt;&lt;span style=&quot;background-color: initial;&quot;&gt;idade : inteiro&lt;/span&gt;&lt;/p&gt;" style="rounded=1;whiteSpace=wrap;html=1;absoluteArcSize=1;arcSize=14;strokeWidth=2;" vertex="1" parent="1">
          <mxGeometry x="160" y="190" width="100" height="100" as="geometry" />
        </mxCell>
        <mxCell id="_nZEtKebiJ_Cd3WZfdzX-4" style="edgeStyle=orthogonalEdgeStyle;rounded=0;orthogonalLoop=1;jettySize=auto;html=1;" edge="1" parent="1">
          <mxGeometry relative="1" as="geometry">
            <mxPoint x="488" y="240" as="targetPoint" />
            <mxPoint x="470" y="240" as="sourcePoint" />
          </mxGeometry>
        </mxCell>
        <mxCell id="_nZEtKebiJ_Cd3WZfdzX-5" value="&lt;p class=&quot;MsoNormal&quot;&gt;&lt;span style=&quot;background-color: initial;&quot;&gt;escreva (&quot;Seu nome é&quot;, &quot; &quot;, nome, &quot;&lt;/span&gt;&lt;br&gt;&lt;/p&gt;&lt;p class=&quot;MsoNormal&quot;&gt;&quot;, &quot;e você tem&quot;, idade, &quot; &quot;, &quot;anos.&quot;)&lt;/p&gt;" style="rounded=1;whiteSpace=wrap;html=1;absoluteArcSize=1;arcSize=14;strokeWidth=2;" vertex="1" parent="1">
          <mxGeometry x="320" y="190" width="150" height="100" as="geometry" />
        </mxCell>
        <mxCell id="_nZEtKebiJ_Cd3WZfdzX-6" value="Início" style="strokeWidth=2;html=1;shape=mxgraph.flowchart.start_2;whiteSpace=wrap;" vertex="1" parent="1">
          <mxGeometry x="162" y="50" width="100" height="100" as="geometry" />
        </mxCell>
        <mxCell id="_nZEtKebiJ_Cd3WZfdzX-7" value="FimAlgoritmo" style="strokeWidth=2;html=1;shape=mxgraph.flowchart.start_1;whiteSpace=wrap;" vertex="1" parent="1">
          <mxGeometry x="491" y="210" width="100" height="60" as="geometry" />
        </mxCell>
      </root>
    </mxGraphModel>
  </diagram>
</mxfile>
